<svg width="124" height="101" viewBox="0 0 124 101" fill="none" xmlns="http://www.w3.org/2000/svg">
<path d="M94.3253 65.8232C90.8321 76.2815 83.7628 85.1472 74.38 90.8358C64.9973 96.5239 53.9133 98.6646 43.1088 96.8748C32.3042 95.085 22.4833 89.4809 15.4013 81.065C8.31933 72.649 4.4378 61.9693 4.45043 50.9342C4.46307 39.8993 8.36906 29.2285 15.4703 20.8289C22.5716 12.4294 32.4053 6.84849 43.2139 5.08372C54.0226 3.31895 65.1016 5.48531 74.4713 11.1956C83.8409 16.9059 90.8898 25.788 94.3589 36.2544" stroke="white" stroke-width="3"/>
<path d="M87.4469 61.2055V62.1578H76.9339V61.2055H81.3844L77.9852 54.1095H65.755L62.3558 61.2055H66.9815V62.1578H56.3633V61.2055H61.1993L70.6961 42.0063H65.72V41.0847H78.0553V42.0063H73.044L82.681 61.2055H87.4469ZM77.4946 53.1572L72.1329 42.0063H71.6073L66.2456 53.1572H77.4946ZM110.546 41.0847V46.5834H109.39V42.0063H99.5773V61.2055H105.044V62.1578H92.9892V61.2055H98.4209V42.0063H88.6087V46.5834H87.4523V41.0847H110.546Z" fill="white"/>
</svg>
